<svg width="147" height="147" viewBox="0 0 147 147" fill="none" xmlns="http://www.w3.org/2000/svg">
<path d="M43 11L73.5 23L104 11L73.5 0L43 11Z" fill="#09FFFF"/>
<path d="M104 11L73.5 23V61L104 49V11Z" fill="url(#paint0_linear_626_7528)"/>
<path d="M73.5 23L43 11V49L73.5 61V23Z" fill="url(#paint1_linear_626_7528)"/>
<path d="M85.5 96L116 108L146.5 96L116 85L85.5 96Z" fill="#09FFFF"/>
<path d="M146.5 96L116 108V146L146.5 134V96Z" fill="url(#paint2_linear_626_7528)"/>
<path d="M116 108L85.5 96V134L116 146V108Z" fill="url(#paint3_linear_626_7528)"/>
<path d="M0 96.5L30.5 108.5L61 96.5L30.5 85.5L0 96.5Z" fill="#09FFFF"/>
<path d="M61 96.5L30.5 108.5V146.5L61 134.5V96.5Z" fill="url(#paint4_linear_626_7528)"/>
<path d="M30.5 108.5L0 96.5V134.5L30.5 146.5V108.5Z" fill="url(#paint5_linear_626_7528)"/>
<path d="M56.5 37C57.7 34.6 55.6667 33.6667 54.5 33.5L28.5 43.5V95.5C30.5 96.7 32.3333 96 33 95.5V46.5L56.5 37Z" fill="#68607C"/>
<path d="M90.5 37C89.3 34.6 91.3333 33.6667 92.5 33.5L118.5 43.5V95.5C116.5 96.7 114.667 96 114 95.5V46.5L90.5 37Z" fill="#68607C"/>
<path d="M42 123C40.4 119.4 42.6667 118.167 44 118L73 129.5L102 118.5C104.8 118.1 105.167 121 105 122.5L73 135L42 123Z" fill="#68607C"/>
<defs>
<linearGradient id="paint0_linear_626_7528" x1="73.5" y1="-1.07843e-06" x2="88.5" y2="72.5" gradientUnits="userSpaceOnUse">
<stop stop-color="#087780"/>
<stop offset="0.62917" stop-color="#086B7A"/>
<stop offset="1" stop-color="#087780" stop-opacity="0"/>
</linearGradient>
<linearGradient id="paint1_linear_626_7528" x1="73.25" y1="-3.57872e-08" x2="74.4508" y2="170.516" gradientUnits="userSpaceOnUse">
<stop stop-color="#0B1E61"/>
<stop offset="0.697037" stop-color="#0E2163" stop-opacity="0.65"/>
<stop offset="1" stop-color="#0E2163" stop-opacity="0"/>
</linearGradient>
<linearGradient id="paint2_linear_626_7528" x1="73.5" y1="2.22885e-06" x2="88" y2="133" gradientUnits="userSpaceOnUse">
<stop stop-color="#087780"/>
<stop offset="0.62917" stop-color="#086B7A"/>
<stop offset="1" stop-color="#087780" stop-opacity="0"/>
</linearGradient>
<linearGradient id="paint3_linear_626_7528" x1="73.25" y1="-3.57872e-08" x2="74.4508" y2="170.516" gradientUnits="userSpaceOnUse">
<stop stop-color="#0B1E61"/>
<stop offset="0.697037" stop-color="#0E2163" stop-opacity="0.65"/>
<stop offset="1" stop-color="#0E2163" stop-opacity="0"/>
</linearGradient>
<linearGradient id="paint4_linear_626_7528" x1="73.5" y1="2.22885e-06" x2="88" y2="133" gradientUnits="userSpaceOnUse">
<stop stop-color="#087780"/>
<stop offset="0.62917" stop-color="#086B7A"/>
<stop offset="1" stop-color="#087780" stop-opacity="0"/>
</linearGradient>
<linearGradient id="paint5_linear_626_7528" x1="73.25" y1="-3.57872e-08" x2="74.4508" y2="170.516" gradientUnits="userSpaceOnUse">
<stop stop-color="#0B1E61"/>
<stop offset="0.697037" stop-color="#0E2163" stop-opacity="0.65"/>
<stop offset="1" stop-color="#0E2163" stop-opacity="0"/>
</linearGradient>
</defs>
</svg>
