<svg width="23" height="24" viewBox="0 0 23 24" fill="none" xmlns="http://www.w3.org/2000/svg">
<path d="M18.1893 5.89404C16.9932 5.34463 15.7105 4.93984 14.3695 4.708C14.345 4.70353 14.3206 4.71471 14.3081 4.73708C14.1431 5.03078 13.9604 5.41395 13.8324 5.71512C12.39 5.49894 10.955 5.49894 9.54213 5.71512C9.41415 5.40726 9.22479 5.03078 9.05909 4.73708C9.04651 4.71546 9.02211 4.70428 8.99769 4.708C7.65735 4.9391 6.3747 5.34389 5.17785 5.89404C5.16749 5.89851 5.15861 5.90598 5.15272 5.91566C2.71981 9.55428 2.05334 13.1035 2.38029 16.6087C2.38177 16.6258 2.39138 16.6422 2.4047 16.6526C4.00986 17.8327 5.56473 18.5491 7.09073 19.0239C7.11516 19.0314 7.14103 19.0225 7.15657 19.0023C7.51755 18.5089 7.83933 17.9885 8.11522 17.4413C8.1315 17.4093 8.11596 17.3713 8.08268 17.3586C7.57229 17.1648 7.08629 16.9284 6.6188 16.6601C6.58182 16.6385 6.57886 16.5855 6.61288 16.5602C6.71125 16.4864 6.80966 16.4096 6.9036 16.3321C6.92059 16.3179 6.94427 16.3149 6.96426 16.3239C10.0355 17.7276 13.3605 17.7276 16.3955 16.3239C16.4155 16.3142 16.4392 16.3172 16.4569 16.3313C16.5509 16.4089 16.6492 16.4864 16.7483 16.5602C16.7824 16.5855 16.7801 16.6385 16.7432 16.6601C16.2757 16.9337 15.7897 17.1648 15.2785 17.3578C15.2453 17.3705 15.2305 17.4093 15.2467 17.4413C15.5286 17.9877 15.8503 18.5081 16.2047 19.0016C16.2195 19.0225 16.2461 19.0314 16.2705 19.0239C17.8039 18.5491 19.3588 17.8327 20.9639 16.6526C20.978 16.6422 20.9869 16.6265 20.9883 16.6094C21.3796 12.557 20.3329 9.03694 18.2137 5.9164C18.2085 5.90598 18.1997 5.89851 18.1893 5.89404ZM8.57386 14.4744C7.6492 14.4744 6.88732 13.6245 6.88732 12.5809C6.88732 11.5372 7.63443 10.6874 8.57386 10.6874C9.52067 10.6874 10.2752 11.5447 10.2604 12.5809C10.2604 13.6245 9.51326 14.4744 8.57386 14.4744ZM14.8096 14.4744C13.8849 14.4744 13.123 13.6245 13.123 12.5809C13.123 11.5372 13.8701 10.6874 14.8096 10.6874C15.7564 10.6874 16.5109 11.5447 16.4961 12.5809C16.4961 13.6245 15.7564 14.4744 14.8096 14.4744Z" fill="white"/>
</svg>
