<svg width="335" height="101" viewBox="0 0 335 101" fill="none" xmlns="http://www.w3.org/2000/svg">
<path d="M124.463 80.9604V87.375H105.754V80.9604H124.463ZM108.58 50.3131V87.375H100.281V50.3131H108.58ZM142.714 80.8077V68.9968C142.714 68.1653 142.587 67.4525 142.333 66.8586C142.078 66.2646 141.679 65.798 141.136 65.4586C140.593 65.1192 139.889 64.9495 139.023 64.9495C138.294 64.9495 137.657 65.0768 137.114 65.3313C136.588 65.5859 136.181 65.9507 135.892 66.4259C135.621 66.901 135.485 67.4865 135.485 68.1822H127.543C127.543 66.9434 127.823 65.7895 128.383 64.7204C128.943 63.6513 129.741 62.7095 130.776 61.8949C131.828 61.0804 133.084 60.4525 134.543 60.0113C136.003 59.5531 137.64 59.324 139.456 59.324C141.611 59.324 143.529 59.6889 145.209 60.4186C146.906 61.1313 148.246 62.2089 149.231 63.6513C150.215 65.0768 150.707 66.8756 150.707 69.0477V80.5786C150.707 82.2417 150.8 83.5483 150.987 84.4986C151.191 85.432 151.479 86.2465 151.853 86.9423V87.375H143.834C143.461 86.5774 143.181 85.5932 142.994 84.4223C142.808 83.2344 142.714 82.0295 142.714 80.8077ZM143.707 70.575L143.758 74.9531H139.812C138.93 74.9531 138.166 75.0635 137.522 75.2841C136.894 75.5047 136.385 75.8101 135.994 76.2004C135.604 76.5738 135.316 77.015 135.129 77.5241C134.959 78.0162 134.874 78.5592 134.874 79.1532C134.874 79.7132 135.01 80.2223 135.282 80.6804C135.553 81.1216 135.926 81.4695 136.402 81.7241C136.877 81.9786 137.428 82.1059 138.056 82.1059C139.091 82.1059 139.974 81.9023 140.703 81.495C141.45 81.0877 142.027 80.5956 142.434 80.0186C142.842 79.4247 143.045 78.8732 143.045 78.3641L144.954 81.6732C144.649 82.352 144.276 83.0562 143.834 83.7859C143.393 84.4986 142.833 85.1689 142.154 85.7968C141.476 86.4077 140.653 86.9083 139.685 87.2986C138.735 87.6889 137.589 87.8841 136.249 87.8841C134.518 87.8841 132.948 87.5362 131.54 86.8405C130.131 86.1277 129.003 85.152 128.154 83.9132C127.323 82.6744 126.907 81.2489 126.907 79.6368C126.907 78.1944 127.17 76.9132 127.696 75.7932C128.222 74.6731 129.011 73.7228 130.063 72.9422C131.132 72.1616 132.473 71.5762 134.085 71.1859C135.697 70.7786 137.581 70.575 139.736 70.575H143.707ZM163.714 65.7131V87.375H155.747V59.8331H163.231L163.714 65.7131ZM162.671 72.6368L160.685 72.6877C160.685 70.6174 160.94 68.7592 161.449 67.1131C161.958 65.4671 162.679 64.0671 163.613 62.9131C164.563 61.7422 165.691 60.8513 166.998 60.2404C168.322 59.6295 169.781 59.324 171.376 59.324C172.666 59.324 173.845 59.5107 174.914 59.884C175.984 60.2574 176.9 60.8598 177.664 61.6913C178.444 62.5058 179.038 63.5919 179.445 64.9495C179.853 66.2901 180.056 67.9446 180.056 69.9131V87.375H172.063V69.8877C172.063 68.7337 171.902 67.8428 171.58 67.2149C171.257 66.5871 170.782 66.1459 170.154 65.8913C169.543 65.6368 168.797 65.5095 167.914 65.5095C166.981 65.5095 166.183 65.6962 165.522 66.0695C164.86 66.4259 164.317 66.9265 163.893 67.5713C163.468 68.2162 163.154 68.9713 162.951 69.8368C162.764 70.7022 162.671 71.6356 162.671 72.6368ZM201.285 81.215V48.2767H209.278V87.375H202.1L201.285 81.215ZM184.129 73.935V73.4004C184.129 71.3131 184.358 69.4125 184.816 67.6986C185.291 65.9677 185.979 64.4828 186.878 63.244C187.794 61.9883 188.923 61.021 190.264 60.3422C191.604 59.6634 193.14 59.324 194.871 59.324C196.466 59.324 197.857 59.6804 199.045 60.3931C200.233 61.0889 201.243 62.0731 202.074 63.3458C202.923 64.6016 203.61 66.0865 204.136 67.8004C204.662 69.4974 205.061 71.3386 205.333 73.3241V74.2404C205.078 76.141 204.679 77.9144 204.136 79.5604C203.61 81.2065 202.923 82.6574 202.074 83.9132C201.243 85.152 200.225 86.1277 199.02 86.8405C197.832 87.5362 196.432 87.8841 194.82 87.8841C193.089 87.8841 191.553 87.5362 190.213 86.8405C188.889 86.1447 187.777 85.1689 186.878 83.9132C185.979 82.6574 185.291 81.181 184.816 79.4841C184.358 77.7871 184.129 75.9374 184.129 73.935ZM192.071 73.4004V73.935C192.071 75.021 192.147 76.0307 192.3 76.9641C192.47 77.8974 192.741 78.7204 193.114 79.4332C193.488 80.1459 193.98 80.7059 194.591 81.1132C195.202 81.5035 195.948 81.6986 196.831 81.6986C198.019 81.6986 198.994 81.4271 199.758 80.8841C200.522 80.3241 201.099 79.5519 201.489 78.5677C201.879 77.5835 202.083 76.438 202.1 75.1313V72.4586C202.1 71.3725 201.99 70.3968 201.769 69.5313C201.548 68.6659 201.218 67.9362 200.776 67.3422C200.352 66.7483 199.818 66.2986 199.173 65.9931C198.528 65.6707 197.764 65.5095 196.882 65.5095C196.016 65.5095 195.278 65.7131 194.667 66.1204C194.056 66.5107 193.556 67.0622 193.165 67.7749C192.792 68.4877 192.512 69.3277 192.325 70.295C192.156 71.2453 192.071 72.2804 192.071 73.4004Z" fill="white"/>
<path d="M217.184 48.2767V87.375H209.217V48.2767H217.184ZM221.766 73.8841V73.3495C221.766 71.3301 222.054 69.4719 222.631 67.7749C223.208 66.061 224.057 64.5762 225.177 63.3204C226.297 62.0646 227.671 61.0889 229.3 60.3931C230.929 59.6804 232.796 59.324 234.9 59.324C237.039 59.324 238.922 59.6804 240.551 60.3931C242.197 61.0889 243.58 62.0646 244.7 63.3204C245.82 64.5762 246.669 66.061 247.246 67.7749C247.823 69.4719 248.111 71.3301 248.111 73.3495V73.8841C248.111 75.8865 247.823 77.7447 247.246 79.4586C246.669 81.1556 245.82 82.6404 244.7 83.9132C243.58 85.1689 242.206 86.1447 240.577 86.8405C238.948 87.5362 237.072 87.8841 234.951 87.8841C232.847 87.8841 230.972 87.5362 229.326 86.8405C227.68 86.1447 226.297 85.1689 225.177 83.9132C224.057 82.6404 223.208 81.1556 222.631 79.4586C222.054 77.7447 221.766 75.8865 221.766 73.8841ZM229.733 73.3495V73.8841C229.733 74.9701 229.818 75.9883 229.988 76.9386C230.174 77.8889 230.471 78.7204 230.879 79.4332C231.286 80.1459 231.82 80.7059 232.482 81.1132C233.161 81.5035 233.984 81.6986 234.951 81.6986C235.919 81.6986 236.733 81.5035 237.395 81.1132C238.057 80.7059 238.591 80.1459 238.999 79.4332C239.406 78.7204 239.694 77.8889 239.864 76.9386C240.051 75.9883 240.144 74.9701 240.144 73.8841V73.3495C240.144 72.2804 240.051 71.2792 239.864 70.3459C239.694 69.3956 239.406 68.5556 238.999 67.8259C238.591 67.0962 238.048 66.5277 237.369 66.1204C236.708 65.7131 235.885 65.5095 234.9 65.5095C233.95 65.5095 233.144 65.7131 232.482 66.1204C231.82 66.5277 231.286 67.0962 230.879 67.8259C230.471 68.5556 230.174 69.3956 229.988 70.3459C229.818 71.2792 229.733 72.2804 229.733 73.3495ZM260.253 66.2477V87.375H252.311V59.8331H259.77L260.253 66.2477ZM268.475 59.6295L268.348 67.0368C268.008 66.9859 267.567 66.9434 267.024 66.9095C266.481 66.8586 266.014 66.8331 265.624 66.8331C264.606 66.8331 263.723 66.9604 262.977 67.2149C262.247 67.4525 261.636 67.8089 261.144 68.284C260.669 68.7592 260.313 69.3531 260.075 70.0659C259.837 70.7616 259.719 71.5677 259.719 72.4841L258.217 71.7459C258.217 69.9301 258.395 68.2671 258.751 66.7568C259.108 65.2465 259.625 63.9398 260.304 62.8368C260.983 61.7167 261.814 60.8513 262.799 60.2404C263.783 59.6295 264.903 59.324 266.159 59.324C266.566 59.324 266.982 59.3495 267.406 59.4004C267.83 59.4513 268.187 59.5277 268.475 59.6295ZM287.261 81.215V48.2767H295.253V87.375H288.075L287.261 81.215ZM270.104 73.935V73.4004C270.104 71.3131 270.333 69.4125 270.791 67.6986C271.267 65.9677 271.954 64.4828 272.853 63.244C273.77 61.9883 274.898 61.021 276.239 60.3422C277.579 59.6634 279.115 59.324 280.846 59.324C282.441 59.324 283.833 59.6804 285.021 60.3931C286.208 61.0889 287.218 62.0731 288.05 63.3458C288.898 64.6016 289.585 66.0865 290.111 67.8004C290.637 69.4974 291.036 71.3386 291.308 73.3241V74.2404C291.053 76.141 290.654 77.9144 290.111 79.5604C289.585 81.2065 288.898 82.6574 288.05 83.9132C287.218 85.152 286.2 86.1277 284.995 86.8405C283.807 87.5362 282.407 87.8841 280.795 87.8841C279.064 87.8841 277.528 87.5362 276.188 86.8405C274.864 86.1447 273.753 85.1689 272.853 83.9132C271.954 82.6574 271.267 81.181 270.791 79.4841C270.333 77.7871 270.104 75.9374 270.104 73.935ZM278.046 73.4004V73.935C278.046 75.021 278.122 76.0307 278.275 76.9641C278.445 77.8974 278.716 78.7204 279.09 79.4332C279.463 80.1459 279.955 80.7059 280.566 81.1132C281.177 81.5035 281.924 81.6986 282.806 81.6986C283.994 81.6986 284.97 81.4271 285.733 80.8841C286.497 80.3241 287.074 79.5519 287.464 78.5677C287.854 77.5835 288.058 76.438 288.075 75.1313V72.4586C288.075 71.3725 287.965 70.3968 287.744 69.5313C287.524 68.6659 287.193 67.9362 286.751 67.3422C286.327 66.7483 285.793 66.2986 285.148 65.9931C284.503 65.6707 283.739 65.5095 282.857 65.5095C281.991 65.5095 281.253 65.7131 280.642 66.1204C280.031 66.5107 279.531 67.0622 279.14 67.7749C278.767 68.4877 278.487 69.3277 278.3 70.295C278.131 71.2453 278.046 72.2804 278.046 73.4004ZM300.981 83.6077C300.981 82.4538 301.388 81.4865 302.202 80.7059C303.034 79.9253 304.111 79.535 305.435 79.535C306.776 79.535 307.845 79.9253 308.642 80.7059C309.457 81.4865 309.864 82.4538 309.864 83.6077C309.864 84.7447 309.457 85.7035 308.642 86.4841C307.845 87.2647 306.776 87.655 305.435 87.655C304.111 87.655 303.034 87.2647 302.202 86.4841C301.388 85.7035 300.981 84.7447 300.981 83.6077Z" fill="white"/>
<path fill-rule="evenodd" clip-rule="evenodd" d="M19.6611 8.53906L41 24.6277V88.6949H19.6611V8.53906ZM40.2166 63.8008L20.6397 68.7965V88.6903H40.2166V63.8008Z" fill="white"/>
<path d="M61.5576 68.7926L40.2188 63.7969V88.6863H61.5576V68.7926Z" fill="white"/>
<path fill-rule="evenodd" clip-rule="evenodd" d="M49.8154 0.296875L71.1543 16.3855V80.4528H69.3933V34.0079L49.8164 44.9827V80.4528H49.8154V0.296875Z" fill="white"/>
<path d="M90.7285 44.9866L69.3897 34.0117V88.6902H90.7285V44.9866Z" fill="white"/>
<path d="M201.827 38.4844L219.072 43.6829V48.0968H201.827V38.4844Z" fill="white"/>
</svg>
