<svg width="24" height="24" viewBox="0 0 24 24" fill="none" xmlns="http://www.w3.org/2000/svg">
<path d="M20.7032 4.65729V19.0788C20.7032 19.4085 20.5724 19.7247 20.3395 19.9579C20.1066 20.191 19.7907 20.322 19.4613 20.322H5.05537C4.726 20.322 4.41012 20.191 4.17722 19.9579C3.94432 19.7247 3.81348 19.4085 3.81348 19.0788V4.65729C3.81348 4.32757 3.94432 4.01135 4.17722 3.7782C4.41012 3.54505 4.726 3.41406 5.05537 3.41406H19.4613C19.7907 3.41406 20.1066 3.54505 20.3395 3.7782C20.5724 4.01135 20.7032 4.32757 20.7032 4.65729ZM8.78105 9.87887H6.29727V17.8355H8.78105V9.87887ZM9.0046 7.14376C9.00591 6.95568 8.97019 6.76918 8.8995 6.59491C8.82881 6.42065 8.72453 6.26203 8.5926 6.12811C8.46067 5.9942 8.30369 5.8876 8.13061 5.81442C7.95753 5.74125 7.77175 5.70291 7.58387 5.70161H7.53916C7.15709 5.70161 6.79067 5.85355 6.5205 6.124C6.25034 6.39446 6.09856 6.76127 6.09856 7.14376C6.09856 7.52624 6.25034 7.89305 6.5205 8.16351C6.79067 8.43396 7.15709 8.5859 7.53916 8.5859C7.72705 8.59053 7.91401 8.55805 8.08936 8.49032C8.26471 8.42259 8.42501 8.32093 8.5611 8.19116C8.69719 8.06139 8.8064 7.90605 8.8825 7.73401C8.95859 7.56197 9.00008 7.37661 9.0046 7.18851V7.14376ZM18.2195 13.0019C18.2195 10.6099 16.6994 9.67995 15.1892 9.67995C14.6948 9.65516 14.2025 9.76059 13.7614 9.98571C13.3204 10.2108 12.946 10.5478 12.6756 10.963H12.6061V9.87887H10.2713V17.8355H12.7551V13.6036C12.7192 13.1702 12.8556 12.7401 13.1346 12.4067C13.4137 12.0734 13.8128 11.8637 14.2454 11.8233H14.3398C15.1296 11.8233 15.7158 12.3206 15.7158 13.5737V17.8355H18.1996L18.2195 13.0019Z" fill="white"/>
</svg>
