<svg width="23" height="24" viewBox="0 0 23 24" fill="none" xmlns="http://www.w3.org/2000/svg">
<path fill-rule="evenodd" clip-rule="evenodd" d="M20.782 11.866C20.782 17.0537 16.581 21.2593 11.3988 21.2593C6.21663 21.2593 2.01562 17.0537 2.01562 11.866C2.01562 6.67818 6.21663 2.47266 11.3988 2.47266C16.581 2.47266 20.782 6.67818 20.782 11.866ZM11.7351 9.40722C10.8224 9.78723 8.99838 10.5738 6.26299 11.7668C5.8188 11.9436 5.58612 12.1166 5.56494 12.2858C5.52914 12.5716 5.88674 12.6842 6.37369 12.8375C6.43993 12.8583 6.50856 12.8799 6.57892 12.9028C7.05801 13.0587 7.70247 13.2411 8.0375 13.2484C8.34141 13.255 8.6806 13.1295 9.05507 12.8721C11.6108 11.145 12.9301 10.2721 13.013 10.2533C13.0714 10.24 13.1524 10.2233 13.2072 10.2721C13.2621 10.3209 13.2567 10.4134 13.2509 10.4382C13.2155 10.5894 11.8118 11.8958 11.0854 12.5719C10.8589 12.7826 10.6983 12.9321 10.6654 12.9663C10.5919 13.0428 10.5169 13.1151 10.4448 13.1846C9.99975 13.6142 9.66598 13.9363 10.4633 14.4623C10.8465 14.715 11.1531 14.9241 11.459 15.1326C11.793 15.3603 12.1262 15.5875 12.5573 15.8704C12.6672 15.9425 12.7721 16.0173 12.8742 16.0902C13.263 16.3677 13.6123 16.617 14.0438 16.5772C14.2945 16.5541 14.5535 16.3181 14.685 15.6142C14.9959 13.9506 15.6069 10.3462 15.7481 8.86087C15.7605 8.73074 15.7449 8.5642 15.7324 8.49109C15.7199 8.41798 15.6938 8.31382 15.5989 8.23671C15.4864 8.14539 15.3129 8.12613 15.2353 8.1275C14.8823 8.13372 14.3409 8.3222 11.7351 9.40722Z" fill="white"/>
</svg>
